<svg xmlns="http://www.w3.org/2000/svg" viewBox="0 0 230 113" role="img" aria-labelledby="title desc">
<title id="title">Measured capacities and distance ranks of 279 Pb reference records</title>
<desc id="desc">The horizontal axis shows global distance rank; the vertical axis shows log measured Qe. The orange band contains 77 records at 8–16 mg/g. Teal and purple outlines identify global and local neighbours.</desc>
<rect x="0" y="0" width="230" height="113" fill="#fff"/>
<text x="0" y="11" font-family="Arial,sans-serif" font-size="10" font-weight="700" fill="#526875">Pb references · distance rank × measured capacity</text>
<rect x="35.0" y="46.189" width="183.0" height="7.562" fill="#ed851f" opacity=".18"/>
<path d="M35.0 76.438H218.0" stroke="#d8e0e2" stroke-width=".55"/>
<text x="31.0" y="78.438" text-anchor="end" font-family="Arial,sans-serif" font-size="8" fill="#6c7c84">1</text>
<path d="M35.0 51.317H218.0" stroke="#d8e0e2" stroke-width=".55"/>
<text x="31.0" y="53.317" text-anchor="end" font-family="Arial,sans-serif" font-size="8" fill="#6c7c84">10</text>
<path d="M35.0 26.196H218.0" stroke="#d8e0e2" stroke-width=".55"/>
<text x="31.0" y="28.196" text-anchor="end" font-family="Arial,sans-serif" font-size="8" fill="#6c7c84">100</text>
<path d="M35.0 22.0V84.0H218.0" fill="none" stroke="#9aaab1" stroke-width=".65"/>
<circle cx="35.00" cy="55.21" r="0.82" fill="#8597a0" fill-opacity=".8"/>
<circle cx="35.00" cy="55.21" r="2.15" fill="none" stroke="#00a69a" stroke-width="1.25"/>
<circle cx="35.66" cy="56.91" r="0.82" fill="#8597a0" fill-opacity=".8"/>
<circle cx="36.32" cy="51.32" r="1.05" fill="#ed851f" fill-opacity=".8"/>
<circle cx="36.32" cy="51.32" r="2.15" fill="none" stroke="#7451a7" stroke-width="1.25"/>
<circle cx="36.97" cy="50.30" r="1.05" fill="#ed851f" fill-opacity=".8"/>
<circle cx="37.63" cy="49.76" r="1.05" fill="#ed851f" fill-opacity=".8"/>
<circle cx="38.29" cy="49.31" r="1.05" fill="#ed851f" fill-opacity=".8"/>
<circle cx="38.95" cy="48.44" r="1.05" fill="#ed851f" fill-opacity=".8"/>
<circle cx="39.61" cy="48.93" r="1.05" fill="#ed851f" fill-opacity=".8"/>
<circle cx="40.27" cy="43.09" r="0.82" fill="#8597a0" fill-opacity=".8"/>
<circle cx="40.92" cy="52.18" r="1.05" fill="#ed851f" fill-opacity=".8"/>
<circle cx="41.58" cy="41.37" r="0.82" fill="#8597a0" fill-opacity=".8"/>
<circle cx="42.24" cy="47.88" r="1.05" fill="#ed851f" fill-opacity=".8"/>
<circle cx="42.90" cy="49.03" r="1.05" fill="#ed851f" fill-opacity=".8"/>
<circle cx="43.56" cy="47.37" r="1.05" fill="#ed851f" fill-opacity=".8"/>
<circle cx="44.22" cy="46.18" r="0.82" fill="#8597a0" fill-opacity=".8"/>
<circle cx="44.87" cy="42.23" r="0.82" fill="#8597a0" fill-opacity=".8"/>
<circle cx="45.53" cy="46.80" r="1.05" fill="#ed851f" fill-opacity=".8"/>
<circle cx="46.19" cy="45.46" r="0.82" fill="#8597a0" fill-opacity=".8"/>
<circle cx="46.85" cy="44.49" r="0.82" fill="#8597a0" fill-opacity=".8"/>
<circle cx="47.51" cy="43.68" r="0.82" fill="#8597a0" fill-opacity=".8"/>
<circle cx="48.17" cy="42.69" r="0.82" fill="#8597a0" fill-opacity=".8"/>
<circle cx="48.82" cy="41.48" r="0.82" fill="#8597a0" fill-opacity=".8"/>
<circle cx="49.48" cy="40.35" r="0.82" fill="#8597a0" fill-opacity=".8"/>
<circle cx="50.14" cy="42.64" r="0.82" fill="#8597a0" fill-opacity=".8"/>
<circle cx="50.80" cy="52.10" r="1.05" fill="#ed851f" fill-opacity=".8"/>
<circle cx="51.46" cy="54.27" r="0.82" fill="#8597a0" fill-opacity=".8"/>
<circle cx="52.12" cy="61.03" r="0.82" fill="#8597a0" fill-opacity=".8"/>
<circle cx="52.77" cy="64.64" r="0.82" fill="#8597a0" fill-opacity=".8"/>
<circle cx="53.43" cy="49.25" r="1.05" fill="#ed851f" fill-opacity=".8"/>
<circle cx="54.09" cy="57.68" r="0.82" fill="#8597a0" fill-opacity=".8"/>
<circle cx="54.75" cy="60.50" r="0.82" fill="#8597a0" fill-opacity=".8"/>
<circle cx="55.41" cy="63.12" r="0.82" fill="#8597a0" fill-opacity=".8"/>
<circle cx="56.06" cy="69.84" r="0.82" fill="#8597a0" fill-opacity=".8"/>
<circle cx="56.72" cy="54.99" r="0.82" fill="#8597a0" fill-opacity=".8"/>
<circle cx="57.38" cy="51.62" r="1.05" fill="#ed851f" fill-opacity=".8"/>
<circle cx="58.04" cy="56.82" r="0.82" fill="#8597a0" fill-opacity=".8"/>
<circle cx="58.70" cy="69.67" r="0.82" fill="#8597a0" fill-opacity=".8"/>
<circle cx="59.36" cy="46.13" r="0.82" fill="#8597a0" fill-opacity=".8"/>
<circle cx="60.01" cy="54.10" r="0.82" fill="#8597a0" fill-opacity=".8"/>
<circle cx="60.67" cy="47.91" r="1.05" fill="#ed851f" fill-opacity=".8"/>
<circle cx="61.33" cy="44.99" r="0.82" fill="#8597a0" fill-opacity=".8"/>
<circle cx="61.99" cy="53.42" r="1.05" fill="#ed851f" fill-opacity=".8"/>
<circle cx="62.65" cy="44.81" r="0.82" fill="#8597a0" fill-opacity=".8"/>
<circle cx="63.31" cy="53.19" r="1.05" fill="#ed851f" fill-opacity=".8"/>
<circle cx="63.96" cy="46.92" r="1.05" fill="#ed851f" fill-opacity=".8"/>
<circle cx="64.62" cy="40.03" r="0.82" fill="#8597a0" fill-opacity=".8"/>
<circle cx="65.28" cy="43.07" r="0.82" fill="#8597a0" fill-opacity=".8"/>
<circle cx="65.94" cy="44.89" r="0.82" fill="#8597a0" fill-opacity=".8"/>
<circle cx="66.60" cy="46.33" r="1.05" fill="#ed851f" fill-opacity=".8"/>
<circle cx="67.26" cy="36.26" r="0.82" fill="#8597a0" fill-opacity=".8"/>
<circle cx="67.91" cy="57.41" r="0.82" fill="#8597a0" fill-opacity=".8"/>
<circle cx="68.57" cy="58.82" r="0.82" fill="#8597a0" fill-opacity=".8"/>
<circle cx="69.23" cy="60.44" r="0.82" fill="#8597a0" fill-opacity=".8"/>
<circle cx="69.89" cy="65.30" r="0.82" fill="#8597a0" fill-opacity=".8"/>
<circle cx="70.55" cy="74.32" r="0.82" fill="#8597a0" fill-opacity=".8"/>
<circle cx="71.21" cy="55.40" r="0.82" fill="#8597a0" fill-opacity=".8"/>
<circle cx="71.86" cy="67.07" r="0.82" fill="#8597a0" fill-opacity=".8"/>
<circle cx="72.52" cy="67.45" r="0.82" fill="#8597a0" fill-opacity=".8"/>
<circle cx="73.18" cy="75.30" r="0.82" fill="#8597a0" fill-opacity=".8"/>
<circle cx="73.84" cy="56.10" r="0.82" fill="#8597a0" fill-opacity=".8"/>
<circle cx="74.50" cy="57.96" r="0.82" fill="#8597a0" fill-opacity=".8"/>
<circle cx="75.15" cy="62.86" r="0.82" fill="#8597a0" fill-opacity=".8"/>
<circle cx="75.81" cy="74.91" r="0.82" fill="#8597a0" fill-opacity=".8"/>
<circle cx="76.47" cy="54.98" r="0.82" fill="#8597a0" fill-opacity=".8"/>
<circle cx="77.13" cy="34.78" r="0.82" fill="#8597a0" fill-opacity=".8"/>
<circle cx="77.79" cy="53.70" r="1.05" fill="#ed851f" fill-opacity=".8"/>
<circle cx="78.45" cy="61.10" r="0.82" fill="#8597a0" fill-opacity=".8"/>
<circle cx="79.10" cy="53.81" r="0.82" fill="#8597a0" fill-opacity=".8"/>
<circle cx="79.76" cy="44.81" r="0.82" fill="#8597a0" fill-opacity=".8"/>
<circle cx="80.42" cy="53.19" r="1.05" fill="#ed851f" fill-opacity=".8"/>
<circle cx="81.08" cy="47.06" r="1.05" fill="#ed851f" fill-opacity=".8"/>
<circle cx="81.74" cy="41.20" r="0.82" fill="#8597a0" fill-opacity=".8"/>
<circle cx="82.40" cy="40.17" r="0.82" fill="#8597a0" fill-opacity=".8"/>
<circle cx="83.05" cy="60.22" r="0.82" fill="#8597a0" fill-opacity=".8"/>
<circle cx="83.71" cy="53.60" r="1.05" fill="#ed851f" fill-opacity=".8"/>
<circle cx="84.37" cy="52.24" r="1.05" fill="#ed851f" fill-opacity=".8"/>
<circle cx="85.03" cy="59.69" r="0.82" fill="#8597a0" fill-opacity=".8"/>
<circle cx="85.69" cy="53.40" r="1.05" fill="#ed851f" fill-opacity=".8"/>
<circle cx="86.35" cy="52.10" r="1.05" fill="#ed851f" fill-opacity=".8"/>
<circle cx="87.00" cy="54.27" r="0.82" fill="#8597a0" fill-opacity=".8"/>
<circle cx="87.66" cy="61.04" r="0.82" fill="#8597a0" fill-opacity=".8"/>
<circle cx="88.32" cy="64.64" r="0.82" fill="#8597a0" fill-opacity=".8"/>
<circle cx="88.98" cy="49.26" r="1.05" fill="#ed851f" fill-opacity=".8"/>
<circle cx="89.64" cy="51.32" r="1.05" fill="#ed851f" fill-opacity=".8"/>
<circle cx="90.29" cy="51.32" r="1.05" fill="#ed851f" fill-opacity=".8"/>
<circle cx="90.95" cy="46.14" r="0.82" fill="#8597a0" fill-opacity=".8"/>
<circle cx="91.61" cy="51.32" r="1.05" fill="#ed851f" fill-opacity=".8"/>
<circle cx="92.27" cy="58.37" r="0.82" fill="#8597a0" fill-opacity=".8"/>
<circle cx="92.93" cy="51.32" r="1.05" fill="#ed851f" fill-opacity=".8"/>
<circle cx="93.59" cy="51.32" r="1.05" fill="#ed851f" fill-opacity=".8"/>
<circle cx="94.24" cy="44.99" r="0.82" fill="#8597a0" fill-opacity=".8"/>
<circle cx="94.90" cy="51.32" r="1.05" fill="#ed851f" fill-opacity=".8"/>
<circle cx="95.56" cy="44.81" r="0.82" fill="#8597a0" fill-opacity=".8"/>
<circle cx="96.22" cy="51.32" r="1.05" fill="#ed851f" fill-opacity=".8"/>
<circle cx="96.88" cy="59.62" r="0.82" fill="#8597a0" fill-opacity=".8"/>
<circle cx="97.54" cy="53.60" r="1.05" fill="#ed851f" fill-opacity=".8"/>
<circle cx="98.19" cy="57.41" r="0.82" fill="#8597a0" fill-opacity=".8"/>
<circle cx="98.85" cy="58.81" r="0.82" fill="#8597a0" fill-opacity=".8"/>
<circle cx="99.51" cy="65.32" r="0.82" fill="#8597a0" fill-opacity=".8"/>
<circle cx="100.17" cy="74.82" r="0.82" fill="#8597a0" fill-opacity=".8"/>
<circle cx="100.83" cy="55.40" r="0.82" fill="#8597a0" fill-opacity=".8"/>
<circle cx="101.49" cy="53.71" r="1.05" fill="#ed851f" fill-opacity=".8"/>
<circle cx="102.14" cy="44.78" r="0.82" fill="#8597a0" fill-opacity=".8"/>
<circle cx="102.80" cy="51.32" r="1.05" fill="#ed851f" fill-opacity=".8"/>
<circle cx="103.46" cy="52.66" r="1.05" fill="#ed851f" fill-opacity=".8"/>
<circle cx="104.12" cy="52.31" r="1.05" fill="#ed851f" fill-opacity=".8"/>
<circle cx="104.78" cy="52.17" r="1.05" fill="#ed851f" fill-opacity=".8"/>
<circle cx="105.44" cy="44.74" r="0.82" fill="#8597a0" fill-opacity=".8"/>
<circle cx="106.09" cy="52.03" r="1.05" fill="#ed851f" fill-opacity=".8"/>
<circle cx="106.75" cy="53.09" r="1.05" fill="#ed851f" fill-opacity=".8"/>
<circle cx="107.41" cy="47.55" r="1.05" fill="#ed851f" fill-opacity=".8"/>
<circle cx="108.07" cy="46.99" r="1.05" fill="#ed851f" fill-opacity=".8"/>
<circle cx="108.73" cy="47.61" r="1.05" fill="#ed851f" fill-opacity=".8"/>
<circle cx="109.38" cy="53.36" r="1.05" fill="#ed851f" fill-opacity=".8"/>
<circle cx="110.04" cy="46.29" r="1.05" fill="#ed851f" fill-opacity=".8"/>
<circle cx="110.70" cy="52.20" r="1.05" fill="#ed851f" fill-opacity=".8"/>
<circle cx="111.36" cy="47.55" r="1.05" fill="#ed851f" fill-opacity=".8"/>
<circle cx="112.02" cy="33.92" r="0.82" fill="#8597a0" fill-opacity=".8"/>
<circle cx="112.68" cy="41.45" r="0.82" fill="#8597a0" fill-opacity=".8"/>
<circle cx="113.33" cy="54.17" r="0.82" fill="#8597a0" fill-opacity=".8"/>
<circle cx="113.99" cy="52.24" r="1.05" fill="#ed851f" fill-opacity=".8"/>
<circle cx="114.65" cy="58.66" r="0.82" fill="#8597a0" fill-opacity=".8"/>
<circle cx="115.31" cy="59.76" r="0.82" fill="#8597a0" fill-opacity=".8"/>
<circle cx="115.97" cy="34.27" r="0.82" fill="#8597a0" fill-opacity=".8"/>
<circle cx="116.63" cy="45.59" r="0.82" fill="#8597a0" fill-opacity=".8"/>
<circle cx="117.28" cy="54.59" r="0.82" fill="#8597a0" fill-opacity=".8"/>
<circle cx="117.94" cy="53.47" r="1.05" fill="#ed851f" fill-opacity=".8"/>
<circle cx="118.60" cy="44.81" r="0.82" fill="#8597a0" fill-opacity=".8"/>
<circle cx="119.26" cy="42.77" r="0.82" fill="#8597a0" fill-opacity=".8"/>
<circle cx="119.92" cy="43.90" r="0.82" fill="#8597a0" fill-opacity=".8"/>
<circle cx="120.58" cy="44.74" r="0.82" fill="#8597a0" fill-opacity=".8"/>
<circle cx="121.23" cy="41.55" r="0.82" fill="#8597a0" fill-opacity=".8"/>
<circle cx="121.89" cy="51.32" r="1.05" fill="#ed851f" fill-opacity=".8"/>
<circle cx="122.55" cy="40.57" r="0.82" fill="#8597a0" fill-opacity=".8"/>
<circle cx="123.21" cy="40.13" r="0.82" fill="#8597a0" fill-opacity=".8"/>
<circle cx="123.87" cy="40.24" r="0.82" fill="#8597a0" fill-opacity=".8"/>
<circle cx="124.53" cy="60.22" r="0.82" fill="#8597a0" fill-opacity=".8"/>
<circle cx="125.18" cy="61.31" r="0.82" fill="#8597a0" fill-opacity=".8"/>
<circle cx="125.84" cy="51.64" r="1.05" fill="#ed851f" fill-opacity=".8"/>
<circle cx="126.50" cy="52.24" r="1.05" fill="#ed851f" fill-opacity=".8"/>
<circle cx="127.16" cy="58.88" r="0.82" fill="#8597a0" fill-opacity=".8"/>
<circle cx="127.82" cy="44.51" r="0.82" fill="#8597a0" fill-opacity=".8"/>
<circle cx="128.47" cy="45.04" r="0.82" fill="#8597a0" fill-opacity=".8"/>
<circle cx="129.13" cy="43.99" r="0.82" fill="#8597a0" fill-opacity=".8"/>
<circle cx="129.79" cy="43.22" r="0.82" fill="#8597a0" fill-opacity=".8"/>
<circle cx="130.45" cy="42.16" r="0.82" fill="#8597a0" fill-opacity=".8"/>
<circle cx="131.11" cy="41.22" r="0.82" fill="#8597a0" fill-opacity=".8"/>
<circle cx="131.77" cy="40.33" r="0.82" fill="#8597a0" fill-opacity=".8"/>
<circle cx="132.42" cy="39.69" r="0.82" fill="#8597a0" fill-opacity=".8"/>
<circle cx="133.08" cy="40.01" r="0.82" fill="#8597a0" fill-opacity=".8"/>
<circle cx="133.74" cy="39.31" r="0.82" fill="#8597a0" fill-opacity=".8"/>
<circle cx="134.40" cy="39.16" r="0.82" fill="#8597a0" fill-opacity=".8"/>
<circle cx="135.06" cy="53.74" r="1.05" fill="#ed851f" fill-opacity=".8"/>
<circle cx="135.72" cy="56.85" r="0.82" fill="#8597a0" fill-opacity=".8"/>
<circle cx="136.37" cy="58.90" r="0.82" fill="#8597a0" fill-opacity=".8"/>
<circle cx="137.03" cy="52.45" r="1.05" fill="#ed851f" fill-opacity=".8"/>
<circle cx="137.69" cy="52.10" r="1.05" fill="#ed851f" fill-opacity=".8"/>
<circle cx="138.35" cy="51.85" r="1.05" fill="#ed851f" fill-opacity=".8"/>
<circle cx="139.01" cy="51.54" r="1.05" fill="#ed851f" fill-opacity=".8"/>
<circle cx="139.67" cy="41.79" r="0.82" fill="#8597a0" fill-opacity=".8"/>
<circle cx="140.32" cy="42.17" r="0.82" fill="#8597a0" fill-opacity=".8"/>
<circle cx="140.98" cy="42.71" r="0.82" fill="#8597a0" fill-opacity=".8"/>
<circle cx="141.64" cy="40.57" r="0.82" fill="#8597a0" fill-opacity=".8"/>
<circle cx="142.30" cy="40.21" r="0.82" fill="#8597a0" fill-opacity=".8"/>
<circle cx="142.96" cy="40.27" r="0.82" fill="#8597a0" fill-opacity=".8"/>
<circle cx="143.62" cy="51.33" r="1.05" fill="#ed851f" fill-opacity=".8"/>
<circle cx="144.27" cy="39.94" r="0.82" fill="#8597a0" fill-opacity=".8"/>
<circle cx="144.93" cy="39.92" r="0.82" fill="#8597a0" fill-opacity=".8"/>
<circle cx="145.59" cy="36.93" r="0.82" fill="#8597a0" fill-opacity=".8"/>
<circle cx="146.25" cy="35.49" r="0.82" fill="#8597a0" fill-opacity=".8"/>
<circle cx="146.91" cy="35.11" r="0.82" fill="#8597a0" fill-opacity=".8"/>
<circle cx="147.56" cy="35.03" r="0.82" fill="#8597a0" fill-opacity=".8"/>
<circle cx="148.22" cy="34.91" r="0.82" fill="#8597a0" fill-opacity=".8"/>
<circle cx="148.88" cy="34.90" r="0.82" fill="#8597a0" fill-opacity=".8"/>
<circle cx="149.54" cy="39.72" r="0.82" fill="#8597a0" fill-opacity=".8"/>
<circle cx="150.20" cy="35.33" r="0.82" fill="#8597a0" fill-opacity=".8"/>
<circle cx="150.86" cy="36.16" r="0.82" fill="#8597a0" fill-opacity=".8"/>
<circle cx="151.51" cy="34.64" r="0.82" fill="#8597a0" fill-opacity=".8"/>
<circle cx="152.17" cy="34.44" r="0.82" fill="#8597a0" fill-opacity=".8"/>
<circle cx="152.83" cy="34.11" r="0.82" fill="#8597a0" fill-opacity=".8"/>
<circle cx="153.49" cy="34.04" r="0.82" fill="#8597a0" fill-opacity=".8"/>
<circle cx="154.15" cy="33.72" r="0.82" fill="#8597a0" fill-opacity=".8"/>
<circle cx="154.81" cy="33.70" r="0.82" fill="#8597a0" fill-opacity=".8"/>
<circle cx="155.46" cy="33.68" r="0.82" fill="#8597a0" fill-opacity=".8"/>
<circle cx="156.12" cy="33.61" r="0.82" fill="#8597a0" fill-opacity=".8"/>
<circle cx="156.78" cy="44.84" r="0.82" fill="#8597a0" fill-opacity=".8"/>
<circle cx="157.44" cy="45.39" r="0.82" fill="#8597a0" fill-opacity=".8"/>
<circle cx="158.10" cy="44.26" r="0.82" fill="#8597a0" fill-opacity=".8"/>
<circle cx="158.76" cy="43.36" r="0.82" fill="#8597a0" fill-opacity=".8"/>
<circle cx="159.41" cy="42.50" r="0.82" fill="#8597a0" fill-opacity=".8"/>
<circle cx="160.07" cy="41.80" r="0.82" fill="#8597a0" fill-opacity=".8"/>
<circle cx="160.73" cy="40.89" r="0.82" fill="#8597a0" fill-opacity=".8"/>
<circle cx="161.39" cy="40.15" r="0.82" fill="#8597a0" fill-opacity=".8"/>
<circle cx="162.05" cy="39.98" r="0.82" fill="#8597a0" fill-opacity=".8"/>
<circle cx="162.71" cy="43.90" r="0.82" fill="#8597a0" fill-opacity=".8"/>
<circle cx="163.36" cy="51.32" r="1.05" fill="#ed851f" fill-opacity=".8"/>
<circle cx="164.02" cy="42.87" r="0.82" fill="#8597a0" fill-opacity=".8"/>
<circle cx="164.68" cy="39.72" r="0.82" fill="#8597a0" fill-opacity=".8"/>
<circle cx="165.34" cy="50.56" r="1.05" fill="#ed851f" fill-opacity=".8"/>
<circle cx="166.00" cy="46.04" r="0.82" fill="#8597a0" fill-opacity=".8"/>
<circle cx="166.65" cy="41.84" r="0.82" fill="#8597a0" fill-opacity=".8"/>
<circle cx="167.31" cy="45.57" r="0.82" fill="#8597a0" fill-opacity=".8"/>
<circle cx="167.97" cy="41.75" r="0.82" fill="#8597a0" fill-opacity=".8"/>
<circle cx="168.63" cy="38.32" r="0.82" fill="#8597a0" fill-opacity=".8"/>
<circle cx="169.29" cy="51.68" r="1.05" fill="#ed851f" fill-opacity=".8"/>
<circle cx="169.95" cy="45.10" r="0.82" fill="#8597a0" fill-opacity=".8"/>
<circle cx="170.60" cy="50.67" r="1.05" fill="#ed851f" fill-opacity=".8"/>
<circle cx="171.26" cy="34.36" r="0.82" fill="#8597a0" fill-opacity=".8"/>
<circle cx="171.92" cy="34.85" r="0.82" fill="#8597a0" fill-opacity=".8"/>
<circle cx="172.58" cy="34.24" r="0.82" fill="#8597a0" fill-opacity=".8"/>
<circle cx="173.24" cy="38.43" r="0.82" fill="#8597a0" fill-opacity=".8"/>
<circle cx="173.90" cy="33.98" r="0.82" fill="#8597a0" fill-opacity=".8"/>
<circle cx="174.55" cy="33.79" r="0.82" fill="#8597a0" fill-opacity=".8"/>
<circle cx="175.21" cy="33.68" r="0.82" fill="#8597a0" fill-opacity=".8"/>
<circle cx="175.87" cy="33.67" r="0.82" fill="#8597a0" fill-opacity=".8"/>
<circle cx="176.53" cy="33.66" r="0.82" fill="#8597a0" fill-opacity=".8"/>
<circle cx="177.19" cy="33.64" r="0.82" fill="#8597a0" fill-opacity=".8"/>
<circle cx="177.85" cy="33.63" r="0.82" fill="#8597a0" fill-opacity=".8"/>
<circle cx="178.50" cy="84.00" r="0.82" fill="#8597a0" fill-opacity=".8"/>
<circle cx="179.16" cy="51.92" r="1.05" fill="#ed851f" fill-opacity=".8"/>
<circle cx="179.82" cy="36.93" r="0.82" fill="#8597a0" fill-opacity=".8"/>
<circle cx="180.48" cy="84.00" r="0.82" fill="#8597a0" fill-opacity=".8"/>
<circle cx="181.14" cy="42.31" r="0.82" fill="#8597a0" fill-opacity=".8"/>
<circle cx="181.79" cy="84.00" r="0.82" fill="#8597a0" fill-opacity=".8"/>
<circle cx="182.45" cy="39.63" r="0.82" fill="#8597a0" fill-opacity=".8"/>
<circle cx="183.11" cy="41.93" r="0.82" fill="#8597a0" fill-opacity=".8"/>
<circle cx="183.77" cy="84.00" r="0.82" fill="#8597a0" fill-opacity=".8"/>
<circle cx="184.43" cy="58.88" r="0.82" fill="#8597a0" fill-opacity=".8"/>
<circle cx="185.09" cy="60.13" r="0.82" fill="#8597a0" fill-opacity=".8"/>
<circle cx="185.74" cy="29.93" r="0.82" fill="#8597a0" fill-opacity=".8"/>
<circle cx="186.40" cy="84.00" r="0.82" fill="#8597a0" fill-opacity=".8"/>
<circle cx="187.06" cy="22.00" r="0.82" fill="#8597a0" fill-opacity=".8"/>
<circle cx="187.72" cy="50.77" r="1.05" fill="#ed851f" fill-opacity=".8"/>
<circle cx="188.38" cy="24.63" r="0.82" fill="#8597a0" fill-opacity=".8"/>
<circle cx="189.04" cy="27.80" r="0.82" fill="#8597a0" fill-opacity=".8"/>
<circle cx="189.69" cy="26.17" r="0.82" fill="#8597a0" fill-opacity=".8"/>
<circle cx="190.35" cy="44.70" r="0.82" fill="#8597a0" fill-opacity=".8"/>
<circle cx="191.01" cy="39.16" r="0.82" fill="#8597a0" fill-opacity=".8"/>
<circle cx="191.67" cy="51.25" r="1.05" fill="#ed851f" fill-opacity=".8"/>
<circle cx="192.33" cy="50.75" r="1.05" fill="#ed851f" fill-opacity=".8"/>
<circle cx="192.99" cy="46.15" r="0.82" fill="#8597a0" fill-opacity=".8"/>
<circle cx="193.64" cy="38.50" r="0.82" fill="#8597a0" fill-opacity=".8"/>
<circle cx="194.30" cy="39.80" r="0.82" fill="#8597a0" fill-opacity=".8"/>
<circle cx="194.96" cy="35.98" r="0.82" fill="#8597a0" fill-opacity=".8"/>
<circle cx="195.62" cy="30.93" r="0.82" fill="#8597a0" fill-opacity=".8"/>
<circle cx="196.28" cy="41.04" r="0.82" fill="#8597a0" fill-opacity=".8"/>
<circle cx="196.94" cy="34.28" r="0.82" fill="#8597a0" fill-opacity=".8"/>
<circle cx="197.59" cy="34.02" r="0.82" fill="#8597a0" fill-opacity=".8"/>
<circle cx="198.25" cy="38.17" r="0.82" fill="#8597a0" fill-opacity=".8"/>
<circle cx="198.91" cy="33.86" r="0.82" fill="#8597a0" fill-opacity=".8"/>
<circle cx="199.57" cy="33.65" r="0.82" fill="#8597a0" fill-opacity=".8"/>
<circle cx="200.23" cy="33.55" r="0.82" fill="#8597a0" fill-opacity=".8"/>
<circle cx="200.88" cy="33.54" r="0.82" fill="#8597a0" fill-opacity=".8"/>
<circle cx="201.54" cy="33.54" r="0.82" fill="#8597a0" fill-opacity=".8"/>
<circle cx="202.20" cy="33.53" r="0.82" fill="#8597a0" fill-opacity=".8"/>
<circle cx="202.86" cy="38.74" r="0.82" fill="#8597a0" fill-opacity=".8"/>
<circle cx="203.52" cy="49.47" r="1.05" fill="#ed851f" fill-opacity=".8"/>
<circle cx="204.18" cy="46.84" r="1.05" fill="#ed851f" fill-opacity=".8"/>
<circle cx="204.83" cy="50.82" r="1.05" fill="#ed851f" fill-opacity=".8"/>
<circle cx="205.49" cy="46.35" r="1.05" fill="#ed851f" fill-opacity=".8"/>
<circle cx="206.15" cy="39.87" r="0.82" fill="#8597a0" fill-opacity=".8"/>
<circle cx="206.81" cy="47.58" r="1.05" fill="#ed851f" fill-opacity=".8"/>
<circle cx="207.47" cy="36.02" r="0.82" fill="#8597a0" fill-opacity=".8"/>
<circle cx="208.13" cy="55.21" r="0.82" fill="#8597a0" fill-opacity=".8"/>
<circle cx="208.78" cy="56.03" r="0.82" fill="#8597a0" fill-opacity=".8"/>
<circle cx="209.44" cy="58.90" r="0.82" fill="#8597a0" fill-opacity=".8"/>
<circle cx="210.10" cy="54.14" r="0.82" fill="#8597a0" fill-opacity=".8"/>
<circle cx="210.76" cy="54.14" r="0.82" fill="#8597a0" fill-opacity=".8"/>
<circle cx="211.42" cy="54.14" r="0.82" fill="#8597a0" fill-opacity=".8"/>
<circle cx="212.08" cy="54.14" r="0.82" fill="#8597a0" fill-opacity=".8"/>
<circle cx="212.73" cy="54.14" r="0.82" fill="#8597a0" fill-opacity=".8"/>
<circle cx="213.39" cy="53.75" r="1.05" fill="#ed851f" fill-opacity=".8"/>
<circle cx="214.05" cy="53.75" r="1.05" fill="#ed851f" fill-opacity=".8"/>
<circle cx="214.71" cy="53.75" r="1.05" fill="#ed851f" fill-opacity=".8"/>
<circle cx="215.37" cy="49.80" r="1.05" fill="#ed851f" fill-opacity=".8"/>
<circle cx="216.03" cy="43.83" r="0.82" fill="#8597a0" fill-opacity=".8"/>
<circle cx="216.68" cy="43.51" r="0.82" fill="#8597a0" fill-opacity=".8"/>
<circle cx="217.34" cy="58.88" r="0.82" fill="#8597a0" fill-opacity=".8"/>
<circle cx="218.00" cy="44.11" r="0.82" fill="#8597a0" fill-opacity=".8"/>
<text transform="translate(10 56) rotate(-90)" text-anchor="middle" font-family="Arial,sans-serif" font-size="8" fill="#71818a">Qₑ (mg/g · log₁₀)</text>
<text x="35.0" y="99" font-family="Arial,sans-serif" font-size="8" fill="#71818a">Rank 1</text>
<text x="218.0" y="99" text-anchor="end" font-family="Arial,sans-serif" font-size="8" fill="#71818a">279</text>
<text x="126" y="109" text-anchor="middle" font-family="Arial,sans-serif" font-size="8" fill="#71818a">Global distance rank</text>
</svg>